<svg width="17" height="20" viewBox="0 0 17 20" fill="none" xmlns="http://www.w3.org/2000/svg">
<path fill-rule="evenodd" clip-rule="evenodd" d="M6.73145 17.773C7.20753 18.3098 7.81871 18.6047 8.45286 18.6047H8.45378C9.0907 18.6047 9.70463 18.3098 10.1816 17.7721C10.4371 17.4865 10.8728 17.4633 11.1549 17.7209C11.438 17.9786 11.461 18.4205 11.2064 18.706C10.4638 19.5405 9.48681 20 8.45378 20H8.45194C7.42167 19.9991 6.44654 19.5395 5.70669 18.7051C5.45211 18.4195 5.47509 17.9777 5.75816 17.7209C6.04123 17.4623 6.47687 17.4856 6.73145 17.773ZM8.49863 0C12.5839 0 15.3282 3.22047 15.3282 6.22791C15.3282 7.77488 15.717 8.4307 16.1296 9.12651C16.5377 9.81302 17 10.5926 17 12.066C16.6792 15.8307 12.7962 16.1377 8.49863 16.1377C4.20108 16.1377 0.317102 15.8307 1.21651e-05 12.1256C-0.00273276 10.5926 0.459558 9.81302 0.867623 9.12651L1.01168 8.88107C1.36638 8.26405 1.66905 7.59289 1.66905 6.22791C1.66905 3.22047 4.41338 0 8.49863 0ZM8.49863 1.39535C5.2865 1.39535 3.04765 3.94233 3.04765 6.22791C3.04765 8.16186 2.51735 9.05581 2.04862 9.84465C1.67273 10.4781 1.37587 10.9786 1.37587 12.066C1.52935 13.8205 2.67359 14.7423 8.49863 14.7423C14.2915 14.7423 15.4716 13.7795 15.6242 12.0056C15.6214 10.9786 15.3245 10.4781 14.9486 9.84465C14.4799 9.05581 13.9496 8.16186 13.9496 6.22791C13.9496 3.94233 11.7108 1.39535 8.49863 1.39535Z" fill="white" fill-opacity="0.8"/>
</svg>
