<svg width="18" height="21" viewBox="0 0 18 21" fill="none" xmlns="http://www.w3.org/2000/svg">
<path fill-rule="evenodd" clip-rule="evenodd" d="M7.12742 18.6617C7.6315 19.2253 8.27863 19.5349 8.95009 19.5349C9.62447 19.5349 10.2755 19.2253 10.7805 18.6607C11.0511 18.3608 11.5123 18.3364 11.8111 18.607C12.1108 18.8775 12.1351 19.3415 11.8656 19.6413C11.0793 20.5175 10.0449 21 8.95106 21H8.94912C7.85824 20.999 6.82575 20.5165 6.04238 19.6404C5.77282 19.3405 5.79715 18.8766 6.09688 18.607C6.3966 18.3354 6.85786 18.3599 7.12742 18.6617ZM8.99855 0C13.3241 0 16.2299 3.38149 16.2299 6.5393C16.2299 8.16363 16.6415 8.85223 17.0784 9.58284C17.5105 10.3037 18 11.1222 18 12.6693C17.6604 16.6222 13.5489 16.9446 8.99855 16.9446C4.4482 16.9446 0.335756 16.6222 1.28807e-05 12.7319C-0.00289351 11.1222 0.486591 10.3037 0.91866 9.58284L1.07119 9.32513C1.44675 8.67726 1.76723 7.97253 1.76723 6.5393C1.76723 3.38149 4.67299 0 8.99855 0ZM8.99855 1.46512C5.59747 1.46512 3.22692 4.13944 3.22692 6.5393C3.22692 8.56995 2.66543 9.5086 2.16913 10.3369C1.77112 11.002 1.4568 11.5275 1.4568 12.6693C1.61931 14.5115 2.83086 15.4794 8.99855 15.4794C15.1322 15.4794 16.3817 14.4685 16.5432 12.6059C16.5403 11.5275 16.226 11.002 15.828 10.3369C15.3317 9.5086 14.7702 8.56995 14.7702 6.5393C14.7702 4.13944 12.3996 1.46512 8.99855 1.46512Z" fill="white" fill-opacity="0.8"/>
<path d="M8.99855 1.46512C5.59747 1.46512 3.22692 4.13944 3.22692 6.5393C3.22692 8.56995 2.66543 9.5086 2.16913 10.3369C1.77112 11.002 1.4568 11.5275 1.4568 12.6693C1.61931 14.5115 2.83086 15.4794 8.99855 15.4794C15.1322 15.4794 16.3817 14.4685 16.5432 12.6059C16.5403 11.5275 16.226 11.002 15.828 10.3369C15.3317 9.5086 14.7702 8.56995 14.7702 6.5393C14.7702 4.13944 12.3996 1.46512 8.99855 1.46512Z" fill="white" fill-opacity="0.8"/>
</svg>
