<svg width="28" height="29" viewBox="0 0 28 29" fill="none" xmlns="http://www.w3.org/2000/svg">
<path d="M0.561523 1.95517C0.561523 1.01424 1.3243 0.251465 2.26523 0.251465H15.8052C16.7461 0.251465 17.5089 1.01424 17.5089 1.95517V27.6452C17.5089 28.1157 17.1275 28.4971 16.657 28.4971H1.41337C0.94291 28.4971 0.561523 28.1157 0.561523 27.6452V1.95517Z" fill="#FF5D5D"/>
<path d="M19.1228 14.0604C19.1228 13.1195 19.8856 12.3567 20.8265 12.3567H26.2963C27.2372 12.3567 28 13.1195 28 14.0604V27.6452C28 28.1157 27.6186 28.497 27.1481 28.497H19.9747C19.5042 28.497 19.1228 28.1157 19.1228 27.6452V14.0604Z" fill="#FF5D5D"/>
<rect x="3.20654" y="2.89673" width="4.25926" height="4.25926" rx="1.7037" fill="white"/>
<rect x="3.20654" y="10.5632" width="4.25926" height="4.25926" rx="1.7037" fill="white"/>
<rect x="3.20654" y="18.23" width="4.25926" height="4.25926" rx="1.7037" fill="white"/>
<rect x="10.8733" y="2.89673" width="4.25926" height="4.25926" rx="1.7037" fill="white"/>
<rect x="10.8733" y="10.5632" width="4.25926" height="4.25926" rx="1.7037" fill="white"/>
<rect x="10.8733" y="18.23" width="4.25926" height="4.25926" rx="1.7037" fill="white"/>
<rect x="21.5439" y="14.7778" width="4.03509" height="2.42105" rx="1.21053" fill="white"/>
</svg>
