<svg width="18" height="20" viewBox="0 0 18 20" fill="none" xmlns="http://www.w3.org/2000/svg">
<path d="M12.6497 2.25524e-06C13.0742 -0.000994979 13.4099 0.32884 13.4109 0.76862C13.4114 1.19193 13.7391 1.53715 14.1541 1.62078C16.4887 2.09125 17.9864 3.8784 17.9891 6.48976L18 14.9155C18.0039 18.054 16.0322 19.985 12.8718 19.99L5.15189 20C2.0112 20.004 0.0148232 18.027 0.0108739 14.8796L6.6274e-06 6.55272C-0.00356994 3.92423 1.44069 2.13962 3.76528 1.64209C4.18039 1.55324 4.50575 1.20512 4.50519 0.780614C4.5042 0.340834 4.83002 0.00999952 5.26445 0.00999952C5.69887 0.00900002 6.02469 0.338835 6.02568 0.778615C6.02622 1.16503 6.3399 1.47784 6.72631 1.47731L11.1917 1.47122C11.5781 1.4707 11.8909 1.15702 11.8904 0.770619C11.8894 0.330839 12.2152 0.00100402 12.6497 2.25524e-06ZM13.0525 14.1919H13.0426C12.5884 14.2029 12.2241 14.5837 12.234 15.0435C12.235 15.5032 12.6013 15.8821 13.0555 15.892C13.5185 15.891 13.8937 15.5102 13.8927 15.0405C13.8927 14.5707 13.5165 14.1919 13.0525 14.1919ZM4.91691 14.1929C4.46274 14.2129 4.1073 14.5937 4.10828 15.0535C4.12902 15.5132 4.5042 15.8731 4.95837 15.8521C5.40366 15.8321 5.75811 15.4513 5.73738 14.9915C5.7275 14.5417 5.3612 14.1919 4.91691 14.1929ZM8.9847 14.1879C8.53053 14.2089 8.17608 14.5887 8.17608 15.0485C8.19681 15.5082 8.57199 15.8671 9.02617 15.8471C9.47046 15.8261 9.8259 15.4463 9.80517 14.9855C9.79529 14.5367 9.429 14.1869 8.9847 14.1879ZM4.91197 10.5947C4.4578 10.6147 4.10335 10.9955 4.10433 11.4553C4.12408 11.915 4.50025 12.2749 4.95442 12.2539C5.39872 12.2339 5.75317 11.8531 5.73244 11.3933C5.72257 10.9435 5.35725 10.5937 4.91197 10.5947ZM8.98075 10.5597C8.52658 10.5797 8.17114 10.9605 8.17212 11.4203C8.19187 11.8801 8.56804 12.2389 9.02222 12.2189C9.46651 12.1979 9.82096 11.8181 9.80122 11.3583C9.79036 10.9085 9.42505 10.5587 8.98075 10.5597ZM13.0485 10.5647C12.5944 10.5747 12.2389 10.9445 12.2399 11.4043V11.4153C12.2498 11.8751 12.625 12.2239 13.0801 12.2139C13.5244 12.2029 13.8789 11.8221 13.869 11.3623C13.8483 10.9225 13.4918 10.5637 13.0485 10.5647ZM11.8944 3.81909C11.8938 3.37198 11.5309 3.00999 11.0838 3.0106L6.83723 3.01639C6.39064 3.017 6.02908 3.3795 6.02962 3.82609C6.02962 4.25687 5.70479 4.5967 5.27037 4.5967C4.83595 4.5977 4.50914 4.25887 4.50914 3.82809C4.50861 3.41588 4.14885 3.08656 3.75111 3.19483C2.30567 3.58827 1.51795 4.68613 1.52049 6.55072C1.52104 6.72249 1.66056 6.86138 1.83233 6.86115L16.1198 6.84205C16.3131 6.84179 16.4696 6.68503 16.4696 6.49175C16.4331 4.64237 15.6295 3.54954 14.1726 3.17379C13.7721 3.07048 13.4143 3.40343 13.4148 3.81709C13.4148 4.24688 13.0801 4.58771 12.6556 4.58771C12.2212 4.58871 11.8944 4.24888 11.8944 3.81909Z" fill="#448FFF"/>
</svg>
