<svg width="24" height="22" viewBox="0 0 24 22" fill="none" xmlns="http://www.w3.org/2000/svg">
<path d="M21.2267 2.01335C20.96 1.22669 20.2133 0.666687 19.3333 0.666687H4.66667C3.78667 0.666687 3.05333 1.22669 2.77333 2.01335L0 10V20.6667C0 21.4 0.6 22 1.33333 22H2.66667C3.4 22 4 21.4 4 20.6667V19.3334H20V20.6667C20 21.4 20.6 22 21.3333 22H22.6667C23.4 22 24 21.4 24 20.6667V10L21.2267 2.01335ZM4.66667 15.3334C3.56 15.3334 2.66667 14.44 2.66667 13.3334C2.66667 12.2267 3.56 11.3334 4.66667 11.3334C5.77333 11.3334 6.66667 12.2267 6.66667 13.3334C6.66667 14.44 5.77333 15.3334 4.66667 15.3334ZM19.3333 15.3334C18.2267 15.3334 17.3333 14.44 17.3333 13.3334C17.3333 12.2267 18.2267 11.3334 19.3333 11.3334C20.44 11.3334 21.3333 12.2267 21.3333 13.3334C21.3333 14.44 20.44 15.3334 19.3333 15.3334ZM5.44152 8.66669C4.0764 8.66669 3.11246 7.32929 3.54415 6.03423L4.21082 4.03423C4.48305 3.21755 5.24732 2.66669 6.10819 2.66669H17.8918C18.7527 2.66669 19.517 3.21755 19.7892 4.03423L20.4558 6.03423C20.8875 7.32929 19.9236 8.66669 18.5585 8.66669H5.44152Z" fill="#FFA41B"/>
</svg>
