<svg width="20" height="16" viewBox="0 0 20 16" fill="none" xmlns="http://www.w3.org/2000/svg">
<path fill-rule="evenodd" clip-rule="evenodd" d="M9 4C9 4.55228 8.55228 5 8 5L1 5C0.447716 5 -6.78525e-08 4.55228 -4.37114e-08 4C-1.95703e-08 3.44771 0.447716 3 1 3L8 3C8.55228 3 9 3.44772 9 4Z" fill="white"/>
<path fill-rule="evenodd" clip-rule="evenodd" d="M20 4C20 4.55228 19.5523 5 19 5L12 5C11.4477 5 11 4.55228 11 4C11 3.44771 11.4477 3 12 3L19 3C19.5523 3 20 3.44772 20 4Z" fill="white"/>
<path fill-rule="evenodd" clip-rule="evenodd" d="M11 12C11 12.5523 10.5523 13 10 13L1 13C0.447715 13 -6.78525e-08 12.5523 -4.37114e-08 12C-1.95703e-08 11.4477 0.447715 11 1 11L10 11C10.5523 11 11 11.4477 11 12Z" fill="white"/>
<path fill-rule="evenodd" clip-rule="evenodd" d="M20 12C20 12.5523 19.5523 13 19 13L14 13C13.4477 13 13 12.5523 13 12C13 11.4477 13.4477 11 14 11L19 11C19.5523 11 20 11.4477 20 12Z" fill="white"/>
<path fill-rule="evenodd" clip-rule="evenodd" d="M8 -4.37114e-08C8.55228 -1.95703e-08 9 0.447715 9 1L9 7C9 7.55228 8.55228 8 8 8C7.44771 8 7 7.55228 7 7L7 1C7 0.447715 7.44772 -6.78525e-08 8 -4.37114e-08Z" fill="white"/>
<path fill-rule="evenodd" clip-rule="evenodd" d="M14 8C14.5523 8 15 8.44772 15 9L15 15C15 15.5523 14.5523 16 14 16C13.4477 16 13 15.5523 13 15L13 9C13 8.44772 13.4477 8 14 8Z" fill="white"/>
</svg>
