<svg width="24" height="26" viewBox="0 0 24 26" fill="none" xmlns="http://www.w3.org/2000/svg">
<path d="M20.7113 21.9171C21.3479 22.6083 22.4723 22.4837 22.9422 21.6699C23.1823 21.254 23.1913 20.7437 22.9658 20.3196L17.4239 9.89447L21.0906 3.54362C21.6439 2.58521 21.317 1.3649 20.3586 0.811565C19.4002 0.258232 18.1798 0.585214 17.6265 1.54362L13.9598 7.89447L2.16045 8.30762C1.68048 8.32443 1.24302 8.58731 1.00289 9.00323C0.533024 9.81705 0.987319 10.8531 1.90424 11.0588L10.9598 13.0906L7.29317 19.4415L4.52756 19.7747C4.18524 19.8159 3.88231 20.0159 3.7099 20.3145C3.34601 20.9448 3.68656 21.7482 4.39257 21.9249L7.69189 22.7509L10.0568 25.1952C10.5629 25.7182 11.4289 25.6115 11.7928 24.9812C11.9652 24.6826 11.987 24.3202 11.8515 24.0032L10.7573 21.4415L14.4239 15.0906L20.7113 21.9171Z" fill="#436DFF"/>
</svg>
