<svg width="21" height="20" viewBox="0 0 21 20" fill="none" xmlns="http://www.w3.org/2000/svg">
<path fill-rule="evenodd" clip-rule="evenodd" d="M10.4985 1.0657C12.1664 0.0114026 14.382 -0.279863 16.2961 0.333435C20.4596 1.67592 21.7521 6.21412 20.596 9.8252C18.8123 15.4967 11.194 19.7272 10.8709 19.9046C10.756 19.9682 10.6288 20 10.5016 20C10.3744 20 10.2483 19.9692 10.1334 19.9067C9.81231 19.7313 2.24943 15.5633 0.406154 9.82623L0.405128 9.8252C-0.751921 6.2131 0.536424 1.67387 4.69585 0.333435C6.64888 -0.298323 8.77732 -0.0203905 10.4985 1.0657ZM5.1677 1.79797C1.8022 2.88303 0.956983 6.50231 1.87093 9.35651C3.30903 13.8301 8.99068 17.4473 10.5006 18.3427C12.0156 17.4381 17.7383 13.7809 19.1302 9.36061C20.0442 6.50334 19.1959 2.88406 15.8253 1.79797C14.1923 1.27389 12.2874 1.59285 10.9724 2.61023C10.6975 2.8215 10.316 2.8256 10.039 2.61638C8.64602 1.56926 6.82634 1.26261 5.1677 1.79797Z" fill="white"/>
<path d="M5.1677 1.79797C1.8022 2.88303 0.956983 6.50231 1.87093 9.35651C3.30903 13.8301 8.99068 17.4473 10.5006 18.3427C12.0156 17.4381 17.7383 13.7809 19.1302 9.36061C20.0442 6.50334 19.1959 2.88406 15.8253 1.79797C14.1923 1.27389 12.2874 1.59285 10.9724 2.61023C10.6975 2.8215 10.316 2.8256 10.039 2.61638C8.64602 1.56926 6.82634 1.26261 5.1677 1.79797Z" fill="white"/>
</svg>
