<svg width="21" height="20" viewBox="0 0 21 20" fill="none" xmlns="http://www.w3.org/2000/svg">
<path fill-rule="evenodd" clip-rule="evenodd" d="M10.235 1.03912C11.861 0.0111182 14.021 -0.272882 15.887 0.325118C19.946 1.63412 21.206 6.05912 20.079 9.58012C18.34 15.1101 10.913 19.2351 10.598 19.4081C10.486 19.4701 10.362 19.5011 10.238 19.5011C10.114 19.5011 9.99096 19.4711 9.87896 19.4101C9.56596 19.2391 2.19296 15.1751 0.395957 9.58112C0.394957 9.58112 0.394957 9.58012 0.394957 9.58012C-0.733043 6.05812 0.522957 1.63212 4.57796 0.325118C6.48196 -0.290882 8.55696 -0.0198818 10.235 1.03912ZM5.03796 1.75312C1.75696 2.81112 0.932957 6.34012 1.82396 9.12312C3.22596 13.4851 8.76496 17.0121 10.237 17.8851C11.714 17.0031 17.293 13.4371 18.65 9.12712C19.541 6.34112 18.714 2.81212 15.428 1.75312C13.836 1.24212 11.979 1.55312 10.697 2.54512C10.429 2.75112 10.057 2.75512 9.78696 2.55112C8.42896 1.53012 6.65496 1.23112 5.03796 1.75312ZM14.468 3.73902C15.831 4.18002 16.786 5.38702 16.903 6.81402C16.936 7.22702 16.629 7.58902 16.216 7.62202C16.195 7.62402 16.175 7.62502 16.154 7.62502C15.767 7.62502 15.439 7.32802 15.407 6.93602C15.341 6.11402 14.791 5.42002 14.008 5.16702C13.613 5.03902 13.397 4.61602 13.524 4.22302C13.653 3.82902 14.072 3.61502 14.468 3.73902Z" fill="white" fill-opacity="0.8"/>
</svg>
