<svg width="22" height="24" viewBox="0 0 22 24" fill="none" xmlns="http://www.w3.org/2000/svg">
<path d="M17.9982 23.1581H15.7277C15.3492 23.1581 14.9864 23.0081 14.7197 22.7414C14.453 22.4748 14.3046 22.1135 14.3074 21.7377V18.1972C14.3074 17.7631 14.1337 17.3469 13.8245 17.04C13.5154 16.7331 13.0961 16.5607 12.6589 16.5607H9.33089C8.42047 16.5607 7.68243 17.2934 7.68243 18.1972L17.9982 23.1581ZM17.9982 23.1581C19.0587 23.1608 20.0766 22.7445 20.8274 22.0011C21.5782 21.2577 22.0002 20.2482 22.0002 19.1955V9.10906C22.0002 8.2587 21.6204 7.45208 20.9634 6.90651L17.9982 23.1581ZM7.18243 18.1972V21.3765L7.15396 21.3859L7.15134 21.7443C7.14768 22.2466 6.73543 22.6581 6.22059 22.6581H4.00191C2.06442 22.6581 0.5 21.0998 0.5 19.1852V9.11522C0.518391 8.40511 0.857102 7.73947 1.42463 7.30277L1.42468 7.30284L1.43216 7.29685L8.97981 1.25528L8.98673 1.24974L8.99345 1.24396C10.1146 0.279445 11.7715 0.249515 12.9273 1.17319L12.9289 1.17439L20.6481 7.29462C21.1888 7.74563 21.5002 8.40993 21.5002 9.10906V19.1955C21.5002 20.1142 21.132 20.9959 20.4756 21.6458C19.8191 22.2958 18.9283 22.6604 17.9995 22.6581H17.9982H15.7277C15.4813 22.6581 15.2458 22.5604 15.0732 22.3879C14.9009 22.2155 14.8056 21.9827 14.8074 21.7414V21.7377V18.1972C14.8074 17.6293 14.5801 17.0855 14.1768 16.6852C13.7736 16.2849 13.2275 16.0607 12.6589 16.0607H9.33089C8.14777 16.0607 7.18243 17.0138 7.18243 18.1972Z" stroke="white" stroke-opacity="0.8"/>
</svg>
