<svg width="22" height="24" viewBox="0 0 22 24" fill="none" xmlns="http://www.w3.org/2000/svg">
<path d="M7.68231 22.1587V18.6182C7.68231 17.7144 8.42035 16.9817 9.33077 16.9817H12.6588C13.096 16.9817 13.5153 17.1541 13.8244 17.461C14.1336 17.7679 14.3072 18.1842 14.3072 18.6182V22.1587C14.3045 22.5345 14.4529 22.8958 14.7196 23.1624C14.9862 23.4291 15.3491 23.5791 15.7276 23.5791H17.9981C19.0585 23.5818 20.0765 23.1655 20.8273 22.4221C21.5781 21.6787 22 20.6692 22 19.6165V9.53008C22 8.67972 21.6203 7.8731 20.9633 7.32753L13.2394 1.20361C11.8958 0.129879 9.97071 0.164547 8.66724 1.28595L1.11958 7.32753C0.431475 7.85702 0.0202018 8.66603 -0.00012207 9.53008V19.6062C-0.00012207 21.8004 1.7916 23.5791 4.00179 23.5791H6.22047C7.00661 23.5791 7.64551 22.9494 7.65121 22.169L7.68231 22.1587Z" fill="white"/>
</svg>
