<svg width="12" height="16" viewBox="0 0 12 16" fill="none" xmlns="http://www.w3.org/2000/svg">
<path fill-rule="evenodd" clip-rule="evenodd" d="M6.67064 14.8443C8.23621 13.6407 12 10.3628 12 6.66669C12 5.07539 11.3679 3.54926 10.2426 2.42405C9.11742 1.29883 7.5913 0.666687 6 0.666687C4.4087 0.666687 2.88258 1.29883 1.75736 2.42405C0.632141 3.54926 0 5.07539 0 6.66669C0 10.3628 3.76379 13.6407 5.32936 14.8443C5.72943 15.1518 6.27057 15.1518 6.67064 14.8443ZM8 6.66669C8 7.77126 7.10457 8.66669 6 8.66669C4.89543 8.66669 4 7.77126 4 6.66669C4 5.56212 4.89543 4.66669 6 4.66669C7.10457 4.66669 8 5.56212 8 6.66669Z" fill="#707070"/>
</svg>
