<svg width="20" height="19" viewBox="0 0 20 19" fill="none" xmlns="http://www.w3.org/2000/svg">
<path d="M3.35 3.63999C2.45 2.99999 2.23 1.75999 2.86 0.849988C3.49 -0.0500116 4.74 -0.270012 5.65 0.359988C6.55 0.999988 6.77 2.23999 6.14 3.14999C5.5 4.04999 4.26 4.26999 3.35 3.63999ZM14 18C14 17.4477 13.5523 17 13 17H6.93C5.45 17 4.19 15.92 3.97 14.46L2.16272 5.7814C2.06793 5.32621 1.66678 4.99999 1.20183 4.99999C0.580951 4.99999 0.116064 5.56923 0.240105 6.17759L1.99 14.76C2.37 17.2 4.47 19 6.94 19H13C13.5523 19 14 18.5523 14 18ZM14.7723 13.4229C14.4209 13.1488 13.988 13 13.5423 13H9.35L8.32 8.89999C9.65117 9.64982 11.0675 10.2293 12.599 10.2019C13.1047 10.1928 13.47 9.75015 13.47 9.24431C13.47 8.59313 12.8709 8.10404 12.221 8.063C10.9672 7.98383 9.71644 7.47416 8.78 6.73999L7.14 5.46999C6.91 5.28999 6.65 5.16999 6.38 5.08999C6.06 4.99999 5.72 4.96999 5.39 5.02999H5.37C4.14 5.24999 3.32 6.41999 3.53 7.63999L4.88 13.56C5.16 14.98 6.39 16 7.83 16H14.68L17.7668 18.4242C18.1852 18.7527 18.7831 18.7169 19.1592 18.3408C19.6059 17.8941 19.5605 17.1572 19.0624 16.7687L14.7723 13.4229Z" fill="#448FFF"/>
</svg>
