<svg width="16" height="20" viewBox="0 0 16 20" fill="none" xmlns="http://www.w3.org/2000/svg">
<path fill-rule="evenodd" clip-rule="evenodd" d="M15.8049 16.1575C15.8049 19.4462 11.2949 19.8264 7.90345 19.8264L7.66076 19.8262C5.49999 19.8209 0 19.6845 0 16.1376C0 12.916 4.32874 12.4854 7.6944 12.4692L8.14614 12.4689C10.3068 12.4742 15.8049 12.6106 15.8049 16.1575ZM7.90345 13.9654C3.65189 13.9654 1.49668 14.6958 1.49668 16.1376C1.49668 17.5923 3.65189 18.3297 7.90345 18.3297C12.154 18.3297 14.3082 17.5993 14.3082 16.1575C14.3082 14.7028 12.154 13.9654 7.90345 13.9654ZM7.90345 0C10.825 0 13.2007 2.37672 13.2007 5.29824C13.2007 8.21975 10.825 10.5955 7.90345 10.5955H7.87153C4.956 10.5865 2.59424 8.20878 2.60419 5.29525C2.60419 2.37672 4.98094 0 7.90345 0ZM7.90345 1.42484C5.7672 1.42484 4.02903 3.16198 4.02903 5.29824C4.02207 7.42751 5.74724 9.16366 7.87452 9.17164L7.90345 9.88406V9.17164C10.0387 9.17164 11.7759 7.4335 11.7759 5.29824C11.7759 3.16198 10.0387 1.42484 7.90345 1.42484Z" fill="white" fill-opacity="0.8"/>
<path d="M7.90345 1.42484C5.7672 1.42484 4.02903 3.16198 4.02903 5.29824C4.02207 7.42751 5.74724 9.16366 7.87452 9.17164L7.90345 9.88406V9.17164C10.0387 9.17164 11.7759 7.4335 11.7759 5.29824C11.7759 3.16198 10.0387 1.42484 7.90345 1.42484Z" fill="white" fill-opacity="0.8"/>
<path d="M7.90345 13.9654C3.65189 13.9654 1.49668 14.6958 1.49668 16.1376C1.49668 17.5923 3.65189 18.3297 7.90345 18.3297C12.154 18.3297 14.3082 17.5993 14.3082 16.1575C14.3082 14.7028 12.154 13.9654 7.90345 13.9654Z" fill="white" fill-opacity="0.8"/>
</svg>
