<svg width="20" height="19" viewBox="0 0 20 19" fill="none" xmlns="http://www.w3.org/2000/svg">
<path d="M0.5 18C0.5 17.4477 0.947715 17 1.5 17H18.5C19.0523 17 19.5 17.4477 19.5 18V18C19.5 18.5523 19.0523 19 18.5 19H1.5C0.947715 19 0.5 18.5523 0.5 18V18ZM7.68 11.27L12.03 12.43L17.34 13.85C18.14 14.06 18.96 13.59 19.18 12.79C19.39 11.99 18.92 11.17 18.12 10.95L12.81 9.53L10.2252 1.08258C10.1163 0.726562 9.83104 0.452141 9.47108 0.357022V0.357022C8.78846 0.176639 8.12 0.691402 8.12 1.39746V8.28L3.15 6.95L2.37473 5.01601C2.27732 4.77299 2.07123 4.58999 1.81841 4.52199V4.52199C1.28965 4.37977 0.77 4.77812 0.77 5.32567V7.87653C0.77 8.78119 1.37726 9.5732 2.25092 9.808L2.37 9.84L7.68 11.27Z" fill="#252525"/>
</svg>
