<svg width="21" height="18" viewBox="0 0 21 18" fill="none" xmlns="http://www.w3.org/2000/svg">
<path d="M0.499844 17C0.499844 16.4477 0.947559 16 1.49984 16H18.4998C19.0521 16 19.4998 16.4477 19.4998 17V17C19.4998 17.5523 19.0521 18 18.4998 18H1.49984C0.947559 18 0.499844 17.5523 0.499844 17V17ZM20.0698 6.64001C19.8598 5.84001 19.0298 5.36001 18.2298 5.58001L12.9198 7.00001L6.45318 0.973824C6.18346 0.722478 5.80362 0.627144 5.44718 0.721333V0.721333C4.76332 0.902041 4.43817 1.68326 4.79186 2.29581L8.22984 8.25001L3.25984 9.58001L1.61804 8.29657C1.41141 8.13504 1.14084 8.08008 0.887566 8.14821V8.14821C0.358522 8.2905 0.107911 8.89544 0.381335 9.37018L1.65984 11.59V11.59C2.11322 12.3731 3.03735 12.7567 3.91122 12.5219L4.02984 12.49L9.33984 11.07L13.6898 9.91001L18.9998 8.49001C19.8098 8.26001 20.2798 7.44001 20.0698 6.64001Z" fill="#252525"/>
</svg>
