<svg width="16" height="16" viewBox="0 0 16 16" fill="none" xmlns="http://www.w3.org/2000/svg">
<path fill-rule="evenodd" clip-rule="evenodd" d="M7.22217 1.77778C4.21528 1.77778 1.77772 4.21535 1.77772 7.22223C1.77772 10.2291 4.21528 12.6667 7.22217 12.6667C10.2291 12.6667 12.6666 10.2291 12.6666 7.22223C12.6666 4.21535 10.2291 1.77778 7.22217 1.77778ZM0.222168 7.22223C0.222168 3.35624 3.35617 0.222229 7.22217 0.222229C11.0882 0.222229 14.2222 3.35624 14.2222 7.22223C14.2222 11.0882 11.0882 14.2222 7.22217 14.2222C3.35617 14.2222 0.222168 11.0882 0.222168 7.22223Z" fill="#448FFF"/>
<path fill-rule="evenodd" clip-rule="evenodd" d="M12.5834 12.5833C12.8871 12.2796 13.3796 12.2796 13.6833 12.5833L15.55 14.45C15.8538 14.7538 15.8538 15.2462 15.55 15.55C15.2463 15.8537 14.7538 15.8537 14.4501 15.55L12.5834 13.6833C12.2797 13.3795 12.2797 12.8871 12.5834 12.5833Z" fill="#448FFF"/>
</svg>
