<svg width="17" height="17" viewBox="0 0 17 17" fill="none" xmlns="http://www.w3.org/2000/svg">
<path d="M7.57716 0.814346C7.94413 0.0716773 9.00323 0.0716774 9.3702 0.814346L11.1685 4.45363C11.3141 4.74833 11.5953 4.95265 11.9205 5.00014L15.9418 5.5873C16.7621 5.70706 17.0888 6.71546 16.4947 7.29353L13.5878 10.1219C13.3517 10.3516 13.2438 10.683 13.2996 11.0078L13.9856 15.0033C14.1258 15.8202 13.2687 16.4433 12.535 16.0578L8.93875 14.1686C8.64757 14.0156 8.29979 14.0156 8.00861 14.1686L4.4124 16.0578C3.67871 16.4433 2.82152 15.8202 2.96176 15.0033L3.64776 11.0078C3.70352 10.683 3.59571 10.3516 3.35954 10.1219L0.452658 7.29353C-0.141463 6.71546 0.185293 5.70706 1.00554 5.5873L5.02684 5.00014C5.35211 4.95265 5.63326 4.74833 5.77888 4.45363L7.57716 0.814346Z" fill="#F5CE00"/>
</svg>
