<svg width="22" height="26" viewBox="0 0 22 26" fill="none" xmlns="http://www.w3.org/2000/svg">
<path d="M11 0.666687C5.10671 0.666687 0.333374 1.33335 0.333374 6.00002V18.6667C0.333374 21.24 2.42671 23.3334 5.00004 23.3334L3.00004 25.3334V26H19V25.3334L17 23.3334C19.5734 23.3334 21.6667 21.24 21.6667 18.6667V6.00002C21.6667 1.33335 16.8934 0.666687 11 0.666687ZM5.00004 20.6667C3.89337 20.6667 3.00004 19.7734 3.00004 18.6667C3.00004 17.56 3.89337 16.6667 5.00004 16.6667C6.10671 16.6667 7.00004 17.56 7.00004 18.6667C7.00004 19.7734 6.10671 20.6667 5.00004 20.6667ZM9.66671 12.6667H3.00004V6.00002H9.66671V12.6667ZM17 20.6667C15.8934 20.6667 15 19.7734 15 18.6667C15 17.56 15.8934 16.6667 17 16.6667C18.1067 16.6667 19 17.56 19 18.6667C19 19.7734 18.1067 20.6667 17 20.6667ZM19 12.6667H12.3334V6.00002H19V12.6667Z" fill="#61DE84"/>
</svg>
